# xmcd CD database file generated by OrangeCD 5.2
#
# Track frame offsets:
#	182
#	12207
#	26607
#	37807
#	53207
#	70982
#	86307
#	101682
#	117507
#	136332
#	148007
#	160932
#	174857
#	189182
#
# Disc length: 2703 seconds
#
# Revision: 1
# Processed by: cddbd v1.5PL3 Copyright (c) Steve Scherf et al.
# Submitted via: OrangeCD 5.2
#
DISCID=af0a8d0e
DTITLE=The Woolpackers - The Greatest Line Dancing Party Album
DYEAR=1900
DGENRE=Country
TTITLE0=Line Dance Party
TTITLE1=Louisiana
TTITLE2=Cherokee Boogie
TTITLE3=I Feel Lucky
TTITLE4=Six String Piano
TTITLE5=Too Old
TTITLE6=Hoe Down Come Sunshine
TTITLE7=Long Road To Nashville
TTITLE8=You're Gone
TTITLE9=Texas Saturday Night
TTITLE10=If I Ain't Got You
TTITLE11=Can't Get Myself Over Getting Over You
TTITLE12=Do It With Me
TTITLE13=Hillbilly Rock Hillbilly Roll-'97 Remix
EXTD=
EXTT0=
EXTT1=
EXTT2=
EXTT3=
EXTT4=
EXTT5=
EXTT6=
EXTT7=
EXTT8=
EXTT9=
EXTT10=
EXTT11=
EXTT12=
EXTT13=
PLAYORDER=
